<mxfile host="app.diagrams.net" modified="2022-12-16T07:37:48.192Z" agent="5.0 (Windows NT 10.0; Win64; x64) AppleWebKit/537.36 (KHTML, like Gecko) Chrome/108.0.0.0 Safari/537.36" version="20.7.3" etag="ZqRwNcYj19w6Spnb6vlP" type="github">
  <diagram id="THnGpHazGr7qw37RPbG2" name="페이지-1">
    <mxGraphModel dx="604" dy="1324" grid="1" gridSize="10" guides="1" tooltips="1" connect="1" arrows="1" fold="1" page="1" pageScale="1" pageWidth="827" pageHeight="1169" math="0" shadow="0">
      <root>
        <mxCell id="0" />
        <mxCell id="1" parent="0" />
      </root>
    </mxGraphModel>
  </diagram>
</mxfile>
